<?xml version="1.0" encoding="UTF-8"?>
<!DOCTYPE svg PUBLIC "-//W3C//DTD SVG 1.1//EN" "http://www.w3.org/Graphics/SVG/1.1/DTD/svg11.dtd">
<svg xmlns="http://www.w3.org/2000/svg" version="1.1" width="200px" height="200px" style="shape-rendering:geometricPrecision; text-rendering:geometricPrecision; image-rendering:optimizeQuality; fill-rule:evenodd; clip-rule:evenodd" xmlns:xlink="http://www.w3.org/1999/xlink">
<g><path style="opacity:0.87" fill="#dcdcdc" d="M 88.5,25.5 C 125.27,22.7915 151.77,37.7915 168,70.5C 181.002,108.821 171.169,139.654 138.5,163C 108.222,178.686 79.222,176.686 51.5,157C 26.0318,132.29 19.1985,103.123 31,69.5C 42.8227,45.1707 61.9894,30.504 88.5,25.5 Z M 90.5,33.5 C 121.273,31.4985 144.107,43.8318 159,70.5C 172.254,104.661 164.421,132.828 135.5,155C 105.355,171.546 77.5216,168.379 52,145.5C 31.9625,122.265 28.2959,96.598 41,68.5C 52.2275,49.3089 68.7275,37.6422 90.5,33.5 Z"/></g>
<g><path style="opacity:0.952" fill="#dcdcdc" d="M 139.5,54.5 C 159.253,73.1783 164.753,95.5116 156,121.5C 152.891,128.073 149.058,134.073 144.5,139.5C 142.016,141.597 139.682,143.93 137.5,146.5C 133.144,149.201 128.811,151.868 124.5,154.5C 113.398,158.377 102.064,159.543 90.5,158C 102.759,156.125 112.592,150.292 120,140.5C 122.81,136.069 123.976,131.236 123.5,126C 121.94,115.879 121.44,105.712 122,95.5C 124.797,89.3418 129.63,86.0084 136.5,85.5C 132.652,83.4826 128.652,81.6493 124.5,80C 118.098,79.1824 111.765,79.5158 105.5,81C 108.818,81.8792 112.152,82.7125 115.5,83.5C 110.093,88.6491 107.093,94.9824 106.5,102.5C 106.267,103.932 105.6,104.432 104.5,104C 102.221,99.9433 100.054,95.7767 98,91.5C 91.3333,83.5 84.6667,75.5 78,67.5C 74.6667,59.8333 74.6667,52.1667 78,44.5C 100.41,36.1136 120.91,39.447 139.5,54.5 Z"/></g>
<g><path style="opacity:0.845" fill="#dcdcdc" d="M 71.5,46.5 C 72.0431,46.56 72.3764,46.8933 72.5,47.5C 62.8166,57.1712 60.9832,68.1712 67,80.5C 72.15,86.1381 76.8166,92.1381 81,98.5C 82.8588,102.955 82.5255,107.289 80,111.5C 76.6919,102.236 71.3585,94.2364 64,87.5C 61.3977,83.2943 59.0643,78.961 57,74.5C 50.7668,83.1196 50.1001,92.1196 55,101.5C 60.3333,108.167 65.6667,114.833 71,121.5C 73.2104,126.357 72.877,131.024 70,135.5C 68.8476,132.56 67.8476,129.56 67,126.5C 59.5675,118.404 52.9009,109.737 47,100.5C 44.0886,106.145 42.422,112.145 42,118.5C 33.4043,86.7575 43.2377,62.7575 71.5,46.5 Z"/></g>
</svg>
